<svg width="176" height="40" viewBox="0 0 176 40" fill="none" xmlns="http://www.w3.org/2000/svg">
<path opacity="0.5" d="M39.9903 0.270226L30.2035 36.8334C30.1538 36.9993 29.9547 37.0491 29.8386 36.9329L23.2864 30.3771L28.1964 12.0541C28.2462 11.8881 28.0969 11.7387 27.931 11.7885L9.61815 16.7012L3.09917 10.1786C2.98306 10.0624 3.03282 9.86328 3.1987 9.81349L39.7249 0.00467392C39.8908 -0.02852 40.04 0.120853 39.9903 0.270226Z" fill="#00B37E"/>
<path opacity="0.5" d="M23.2861 30.3767L20.7648 39.837C20.715 40.003 20.516 40.0528 20.3998 39.9366L0.0632818 19.6053C-0.0528324 19.4891 -0.00306943 19.2899 0.162808 19.2401L9.61782 16.7008L23.2861 30.3767Z" fill="#00B37E"/>
<path d="M28.1956 12.0537L23.2856 30.3768L9.61731 16.7009L27.9302 11.7882C28.096 11.7384 28.2453 11.8878 28.1956 12.0537Z" fill="#00B37E"/>
<path d="M67.2084 28.5H63.2481L63.2731 25.5767H67.2084C68.1911 25.5767 69.0198 25.356 69.6944 24.9146C70.3691 24.4648 70.8771 23.811 71.2186 22.9532C71.5684 22.0953 71.7433 21.0584 71.7433 19.8425V18.9555C71.7433 18.0227 71.6433 17.2023 71.4434 16.4944C71.2519 15.7865 70.9645 15.191 70.5814 14.7079C70.1983 14.2249 69.7278 13.8626 69.1697 13.621C68.6117 13.3712 67.9704 13.2462 67.2458 13.2462H63.1732V10.3104H67.2458C68.4618 10.3104 69.5737 10.5186 70.5814 10.9351C71.5975 11.3432 72.4762 11.9303 73.2174 12.6966C73.9587 13.4628 74.5292 14.3789 74.9289 15.445C75.337 16.5027 75.5411 17.6812 75.5411 18.9805V19.8425C75.5411 21.1334 75.337 22.3119 74.9289 23.3779C74.5292 24.444 73.9587 25.3601 73.2174 26.1264C72.4845 26.8843 71.6058 27.4714 70.5814 27.8879C69.5653 28.296 68.441 28.5 67.2084 28.5ZM65.3719 10.3104V28.5H61.6241V10.3104H65.3719ZM85.5478 10.3104V28.5H81.8125V10.3104H85.5478ZM91.1446 10.3104V13.2462H76.3031V10.3104H91.1446ZM100.689 10.3104H103.862L108.535 23.6653L113.207 10.3104H116.38L109.809 28.5H107.26L100.689 10.3104ZM98.9776 10.3104H102.138L102.713 23.328V28.5H98.9776V10.3104ZM114.931 10.3104H118.104V28.5H114.356V23.328L114.931 10.3104ZM120.59 21.8788V21.6164C120.59 20.6253 120.732 19.7134 121.015 18.8805C121.298 18.0393 121.71 17.3106 122.252 16.6943C122.793 16.078 123.459 15.5991 124.251 15.2576C125.042 14.9078 125.95 14.7329 126.974 14.7329C127.998 14.7329 128.91 14.9078 129.71 15.2576C130.51 15.5991 131.18 16.078 131.721 16.6943C132.271 17.3106 132.687 18.0393 132.971 18.8805C133.254 19.7134 133.395 20.6253 133.395 21.6164V21.8788C133.395 22.8616 133.254 23.7735 132.971 24.6147C132.687 25.4476 132.271 26.1763 131.721 26.801C131.18 27.4173 130.514 27.8962 129.723 28.2377C128.931 28.5791 128.023 28.7499 126.999 28.7499C125.975 28.7499 125.063 28.5791 124.263 28.2377C123.472 27.8962 122.801 27.4173 122.252 26.801C121.71 26.1763 121.298 25.4476 121.015 24.6147C120.732 23.7735 120.59 22.8616 120.59 21.8788ZM124.188 21.6164V21.8788C124.188 22.4451 124.238 22.974 124.338 23.4654C124.438 23.9568 124.596 24.3899 124.813 24.7646C125.038 25.1311 125.329 25.4184 125.687 25.6266C126.045 25.8349 126.483 25.939 126.999 25.939C127.499 25.939 127.928 25.8349 128.286 25.6266C128.644 25.4184 128.931 25.1311 129.148 24.7646C129.364 24.3899 129.523 23.9568 129.623 23.4654C129.731 22.974 129.785 22.4451 129.785 21.8788V21.6164C129.785 21.0668 129.731 20.5504 129.623 20.0673C129.523 19.576 129.36 19.1429 129.135 18.7681C128.919 18.385 128.631 18.0851 128.273 17.8686C127.915 17.6521 127.482 17.5438 126.974 17.5438C126.466 17.5438 126.033 17.6521 125.675 17.8686C125.325 18.0851 125.038 18.385 124.813 18.7681C124.596 19.1429 124.438 19.576 124.338 20.0673C124.238 20.5504 124.188 21.0668 124.188 21.6164ZM139.13 17.8686V28.5H135.532V14.9828H138.905L139.13 17.8686ZM138.605 21.2666H137.63C137.63 20.2672 137.76 19.3677 138.018 18.5682C138.276 17.7603 138.638 17.0732 139.105 16.5069C139.571 15.9322 140.125 15.495 140.766 15.1951C141.416 14.887 142.14 14.7329 142.94 14.7329C143.573 14.7329 144.152 14.8245 144.676 15.0077C145.201 15.191 145.651 15.4825 146.026 15.8822C146.409 16.282 146.7 16.8109 146.9 17.4688C147.108 18.1268 147.212 18.9305 147.212 19.8799V28.5H143.59V19.8675C143.59 19.2678 143.506 18.8014 143.34 18.4683C143.173 18.1351 142.927 17.9019 142.603 17.7687C142.286 17.6271 141.895 17.5563 141.428 17.5563C140.945 17.5563 140.525 17.6521 140.167 17.8436C139.817 18.0352 139.525 18.3017 139.292 18.6432C139.067 18.9763 138.896 19.3677 138.78 19.8175C138.663 20.2672 138.605 20.7503 138.605 21.2666ZM156.17 28.7499C155.12 28.7499 154.179 28.5833 153.346 28.2501C152.514 27.9087 151.806 27.4381 151.223 26.8385C150.648 26.2388 150.207 25.5434 149.898 24.7521C149.59 23.9526 149.436 23.1031 149.436 22.2036V21.7039C149.436 20.6795 149.582 19.7425 149.873 18.893C150.165 18.0435 150.581 17.3064 151.123 16.6818C151.672 16.0571 152.339 15.5782 153.122 15.2451C153.904 14.9036 154.787 14.7329 155.77 14.7329C156.728 14.7329 157.577 14.8911 158.319 15.2076C159.06 15.5241 159.68 15.9739 160.18 16.5569C160.688 17.1398 161.071 17.8394 161.329 18.6556C161.588 19.4635 161.717 20.363 161.717 21.3541V22.8532H150.973V20.4546H158.181V20.1798C158.181 19.6801 158.09 19.2345 157.906 18.843C157.731 18.4433 157.465 18.1268 157.107 17.8936C156.749 17.6604 156.291 17.5438 155.733 17.5438C155.258 17.5438 154.85 17.6479 154.508 17.8561C154.167 18.0643 153.888 18.3558 153.671 18.7306C153.463 19.1054 153.305 19.5468 153.197 20.0548C153.097 20.5546 153.047 21.1042 153.047 21.7039V22.2036C153.047 22.745 153.122 23.2447 153.272 23.7028C153.43 24.1608 153.65 24.5564 153.934 24.8896C154.225 25.2227 154.575 25.4809 154.983 25.6641C155.399 25.8474 155.87 25.939 156.395 25.939C157.044 25.939 157.648 25.814 158.206 25.5642C158.773 25.306 159.26 24.9187 159.668 24.4024L161.417 26.3013C161.134 26.7094 160.746 27.1008 160.255 27.4756C159.772 27.8504 159.189 28.1585 158.506 28.4001C157.823 28.6333 157.044 28.7499 156.17 28.7499ZM167.601 26.9759L171.186 14.9828H175.047L169.612 30.5363C169.496 30.8778 169.337 31.2443 169.137 31.6357C168.946 32.0271 168.684 32.3978 168.35 32.7476C168.026 33.1057 167.613 33.3972 167.114 33.6221C166.622 33.8469 166.018 33.9594 165.302 33.9594C164.961 33.9594 164.682 33.9385 164.465 33.8969C164.249 33.8553 163.99 33.797 163.691 33.722V31.086C163.782 31.086 163.878 31.086 163.978 31.086C164.078 31.0943 164.174 31.0985 164.265 31.0985C164.74 31.0985 165.127 31.0444 165.427 30.9361C165.727 30.8278 165.968 30.6613 166.152 30.4364C166.335 30.2198 166.481 29.9367 166.589 29.5869L167.601 26.9759ZM166.102 14.9828L169.037 24.7771L169.55 28.5874L167.101 28.8498L162.241 14.9828H166.102Z" fill="#E1E1E6"/>
</svg>
